{
  "accessors": [
    {
      "bufferView": 2,
      "componentType": 5126,
      "count": 65534,
      "max": [
        53.240352630615234,
        52.89211654663086,
        -2.7223939895629883
      ],
      "min": [
        -42.30624008178711,
        -28.948617935180664,
        -31.738452911376953
      ],
      "type": "VEC3"
    },
    {
      "bufferView": 2,
      "byteOffset": 786408,
      "componentType": 5126,
      "count": 65534,
      "max": [
        0.999987006187439,
        0.9999767541885376,
        0.9673879146575928
      ],
      "min": [
        -0.9999822378158569,
        -0.9982250928878784,
        -0.9998331665992737
      ],
      "type": "VEC3"
    },
    {
      "bufferView": 1,
      "componentType": 5126,
      "count": 65534,
      "max": [
        0.9964200258255005,
        0.9333810210227966
      ],
      "min": [
        0.01232600025832653,
        0.012501999735832214
      ],
      "type": "VEC2"
    },
    {
      "bufferView": 0,
      "componentType": 5125,
      "count": 65544,
      "type": "SCALAR"
    },
    {
      "bufferView": 2,
      "byteOffset": 1572816,
      "componentType": 5126,
      "count": 65532,
      "max": [
        53.23955535888672,
        52.99540710449219,
        4.627685070037842
      ],
      "min": [
        -46.92007064819336,
        -37.2411003112793,
        -33.56044006347656
      ],
      "type": "VEC3"
    },
    {
      "bufferView": 2,
      "byteOffset": 2359200,
      "componentType": 5126,
      "count": 65532,
      "max": [
        0.9999918937683105,
        0.9997000098228455,
        0.9993817806243896
      ],
      "min": [
        -0.9999788999557495,
        -0.9981426000595093,
        -0.9999706745147705
      ],
      "type": "VEC3"
    },
    {
      "bufferView": 1,
      "byteOffset": 524272,
      "componentType": 5126,
      "count": 65532,
      "max": [
        0.9957630038261414,
        0.9538009762763977
      ],
      "min": [
        0.00367900007404387,
        0.010827000252902508
      ],
      "type": "VEC2"
    },
    {
      "bufferView": 0,
      "byteOffset": 262176,
      "componentType": 5125,
      "count": 65544,
      "type": "SCALAR"
    },
    {
      "bufferView": 2,
      "byteOffset": 3145584,
      "componentType": 5126,
      "count": 65532,
      "max": [
        52.949073791503906,
        51.70451354980469,
        10.627798080444336
      ],
      "min": [
        -49.493717193603516,
        -42.50633239746094,
        -34.8508415222168
      ],
      "type": "VEC3"
    },
    {
      "bufferView": 2,
      "byteOffset": 3931968,
      "componentType": 5126,
      "count": 65532,
      "max": [
        0.9999523162841797,
        0.9997645020484924,
        0.9999513626098633
      ],
      "min": [
        -0.9999319314956665,
        -0.9999314546585083,
        -0.9999945163726807
      ],
      "type": "VEC3"
    },
    {
      "bufferView": 1,
      "byteOffset": 1048528,
      "componentType": 5126,
      "count": 65532,
      "max": [
        0.9865700006484985,
        0.9753829836845398
      ],
      "min": [
        0.012024999596178532,
        0.010955000296235085
      ],
      "type": "VEC2"
    },
    {
      "bufferView": 0,
      "byteOffset": 524352,
      "componentType": 5125,
      "count": 65538,
      "type": "SCALAR"
    },
    {
      "bufferView": 2,
      "byteOffset": 4718352,
      "componentType": 5126,
      "count": 65534,
      "max": [
        52.142799377441406,
        49.042537689208984,
        33.679222106933594
      ],
      "min": [
        -50.246402740478516,
        -50.78041076660156,
        -39.02959442138672
      ],
      "type": "VEC3"
    },
    {
      "bufferView": 2,
      "byteOffset": 5504760,
      "componentType": 5126,
      "count": 65534,
      "max": [
        0.9989646673202515,
        0.9998201727867126,
        0.9996814131736755
      ],
      "min": [
        -0.9999635219573975,
        -0.9997962117195129,
        -0.9999964237213135
      ],
      "type": "VEC3"
    },
    {
      "bufferView": 1,
      "byteOffset": 1572784,
      "componentType": 5126,
      "count": 65534,
      "max": [
        0.9962739944458008,
        0.9954469799995422
      ],
      "min": [
        0.00723200011998415,
        0.01080000028014183
      ],
      "type": "VEC2"
    },
    {
      "bufferView": 0,
      "byteOffset": 786504,
      "componentType": 5125,
      "count": 65538,
      "type": "SCALAR"
    },
    {
      "bufferView": 2,
      "byteOffset": 6291168,
      "componentType": 5126,
      "count": 65534,
      "max": [
        39.199764251708984,
        43.22354507446289,
        44.42438507080078
      ],
      "min": [
        -49.00714111328125,
        -50.04888916015625,
        -42.988311767578125
      ],
      "type": "VEC3"
    },
    {
      "bufferView": 2,
      "byteOffset": 7077576,
      "componentType": 5126,
      "count": 65534,
      "max": [
        0.9999606609344482,
        0.9994747042655945,
        0.9999494552612305
      ],
      "min": [
        -0.9999402761459351,
        -0.999818742275238,
        -0.9999847412109375
      ],
      "type": "VEC3"
    },
    {
      "bufferView": 1,
      "byteOffset": 2097056,
      "componentType": 5126,
      "count": 65534,
      "max": [
        0.9960910081863403,
        0.9958209991455078
      ],
      "min": [
        0.0045830002054572105,
        0.010936000384390354
      ],
      "type": "VEC2"
    },
    {
      "bufferView": 0,
      "byteOffset": 1048656,
      "componentType": 5125,
      "count": 65544,
      "type": "SCALAR"
    },
    {
      "bufferView": 2,
      "byteOffset": 7863984,
      "componentType": 5126,
      "count": 65533,
      "max": [
        41.196044921875,
        43.87161636352539,
        44.42438507080078
      ],
      "min": [
        -50.411834716796875,
        -50.58499526977539,
        -42.988311767578125
      ],
      "type": "VEC3"
    },
    {
      "bufferView": 2,
      "byteOffset": 8650380,
      "componentType": 5126,
      "count": 65533,
      "max": [
        0.999477207660675,
        0.9999663829803467,
        0.9999785423278809
      ],
      "min": [
        -0.9999442100524902,
        -0.9998694658279419,
        -0.9999879598617554
      ],
      "type": "VEC3"
    },
    {
      "bufferView": 1,
      "byteOffset": 2621328,
      "componentType": 5126,
      "count": 65533,
      "max": [
        0.9871330261230469,
        0.9952930212020874
      ],
      "min": [
        0.003920000046491623,
        0.011394999921321869
      ],
      "type": "VEC2"
    },
    {
      "bufferView": 0,
      "byteOffset": 1310832,
      "componentType": 5125,
      "count": 65541,
      "type": "SCALAR"
    },
    {
      "bufferView": 2,
      "byteOffset": 9436776,
      "componentType": 5126,
      "count": 65532,
      "max": [
        49.722198486328125,
        45.696903228759766,
        28.074914932250977
      ],
      "min": [
        -50.94634246826172,
        -50.52393341064453,
        -37.650177001953125
      ],
      "type": "VEC3"
    },
    {
      "bufferView": 2,
      "byteOffset": 10223160,
      "componentType": 5126,
      "count": 65532,
      "max": [
        0.9999747276306152,
        0.9999809265136719,
        0.9997326731681824
      ],
      "min": [
        -0.9998524188995361,
        -0.9995353817939758,
        -0.9999178647994995
      ],
      "type": "VEC3"
    },
    {
      "bufferView": 1,
      "byteOffset": 3145592,
      "componentType": 5126,
      "count": 65532,
      "max": [
        0.9961979985237122,
        0.9865080118179321
      ],
      "min": [
        0.00420599989593029,
        0.011611999943852425
      ],
      "type": "VEC2"
    },
    {
      "bufferView": 0,
      "byteOffset": 1572996,
      "componentType": 5125,
      "count": 65544,
      "type": "SCALAR"
    },
    {
      "bufferView": 2,
      "byteOffset": 11009544,
      "componentType": 5126,
      "count": 65532,
      "max": [
        50.12116241455078,
        46.90200424194336,
        22.57422637939453
      ],
      "min": [
        -51.162559509277344,
        -49.402244567871094,
        -37.041873931884766
      ],
      "type": "VEC3"
    },
    {
      "bufferView": 2,
      "byteOffset": 11795928,
      "componentType": 5126,
      "count": 65532,
      "max": [
        0.9968892335891724,
        0.9995954632759094,
        0.9895581007003784
      ],
      "min": [
        -0.9998871088027954,
        -0.9999101161956787,
        -0.9999531507492065
      ],
      "type": "VEC3"
    },
    {
      "bufferView": 1,
      "byteOffset": 3669848,
      "componentType": 5126,
      "count": 65532,
      "max": [
        0.9962829947471619,
        0.9962189793586731
      ],
      "min": [
        0.003671000013127923,
        0.011637000367045403
      ],
      "type": "VEC2"
    },
    {
      "bufferView": 0,
      "byteOffset": 1835172,
      "componentType": 5125,
      "count": 65538,
      "type": "SCALAR"
    },
    {
      "bufferView": 2,
      "byteOffset": 12582312,
      "componentType": 5126,
      "count": 57401,
      "max": [
        51.94413757324219,
        48.8046760559082,
        16.60593032836914
      ],
      "min": [
        -50.7172737121582,
        -46.97037124633789,
        -35.85242462158203
      ],
      "type": "VEC3"
    },
    {
      "bufferView": 2,
      "byteOffset": 13271124,
      "componentType": 5126,
      "count": 57401,
      "max": [
        0.9996165633201599,
        0.9999558925628662,
        0.9996656775474548
      ],
      "min": [
        -0.9998594522476196,
        -0.999774158000946,
        -0.9998819828033447
      ],
      "type": "VEC3"
    },
    {
      "bufferView": 1,
      "byteOffset": 4194104,
      "componentType": 5126,
      "count": 57401,
      "max": [
        0.9914810061454773,
        0.9886969923973083
      ],
      "min": [
        0.00317499996162951,
        0.010778999887406826
      ],
      "type": "VEC2"
    },
    {
      "bufferView": 0,
      "byteOffset": 2097324,
      "componentType": 5125,
      "count": 57411,
      "type": "SCALAR"
    }
  ],
  "asset": {
    "extras": {
      "author": "John Redden (https://sketchfab.com/jtredden)",
      "license": "CC-BY-4.0 (http://creativecommons.org/licenses/by/4.0/)",
      "source": "https://sketchfab.com/3d-models/cheeseburger-b1fdef4a92394fb7a7aba217cc13d59d",
      "title": "Cheeseburger"
    },
    "generator": "Sketchfab-12.67.0",
    "version": "2.0"
  },
  "bufferViews": [
    {
      "buffer": 0,
      "byteLength": 2326968,
      "name": "floatBufferViews",
      "target": 34963
    },
    {
      "buffer": 0,
      "byteLength": 4653312,
      "byteOffset": 2326968,
      "byteStride": 8,
      "name": "floatBufferViews",
      "target": 34962
    },
    {
      "buffer": 0,
      "byteLength": 13959936,
      "byteOffset": 6980280,
      "byteStride": 12,
      "name": "floatBufferViews",
      "target": 34962
    }
  ],
  "buffers": [
    {
      "byteLength": 20940216,
      "uri": "scene.bin"
    }
  ],
  "images": [
    {
      "uri": "textures/texture_baseColor.jpeg"
    }
  ],
  "materials": [
    {
      "doubleSided": true,
      "name": "texture",
      "pbrMetallicRoughness": {
        "baseColorFactor": [
          0.7532196969696969,
          0.7532196969696969,
          0.7532196969696969,
          1.0
        ],
        "baseColorTexture": {
          "index": 0
        },
        "metallicFactor": 0.06837121212121212,
        "roughnessFactor": 0.549810606060606
      }
    }
  ],
  "meshes": [
    {
      "name": "Object_0",
      "primitives": [
        {
          "attributes": {
            "NORMAL": 1,
            "POSITION": 0,
            "TEXCOORD_0": 2
          },
          "indices": 3,
          "material": 0,
          "mode": 4
        }
      ]
    },
    {
      "name": "Object_1",
      "primitives": [
        {
          "attributes": {
            "NORMAL": 5,
            "POSITION": 4,
            "TEXCOORD_0": 6
          },
          "indices": 7,
          "material": 0,
          "mode": 4
        }
      ]
    },
    {
      "name": "Object_2",
      "primitives": [
        {
          "attributes": {
            "NORMAL": 9,
            "POSITION": 8,
            "TEXCOORD_0": 10
          },
          "indices": 11,
          "material": 0,
          "mode": 4
        }
      ]
    },
    {
      "name": "Object_3",
      "primitives": [
        {
          "attributes": {
            "NORMAL": 13,
            "POSITION": 12,
            "TEXCOORD_0": 14
          },
          "indices": 15,
          "material": 0,
          "mode": 4
        }
      ]
    },
    {
      "name": "Object_4",
      "primitives": [
        {
          "attributes": {
            "NORMAL": 17,
            "POSITION": 16,
            "TEXCOORD_0": 18
          },
          "indices": 19,
          "material": 0,
          "mode": 4
        }
      ]
    },
    {
      "name": "Object_5",
      "primitives": [
        {
          "attributes": {
            "NORMAL": 21,
            "POSITION": 20,
            "TEXCOORD_0": 22
          },
          "indices": 23,
          "material": 0,
          "mode": 4
        }
      ]
    },
    {
      "name": "Object_6",
      "primitives": [
        {
          "attributes": {
            "NORMAL": 25,
            "POSITION": 24,
            "TEXCOORD_0": 26
          },
          "indices": 27,
          "material": 0,
          "mode": 4
        }
      ]
    },
    {
      "name": "Object_7",
      "primitives": [
        {
          "attributes": {
            "NORMAL": 29,
            "POSITION": 28,
            "TEXCOORD_0": 30
          },
          "indices": 31,
          "material": 0,
          "mode": 4
        }
      ]
    },
    {
      "name": "Object_8",
      "primitives": [
        {
          "attributes": {
            "NORMAL": 33,
            "POSITION": 32,
            "TEXCOORD_0": 34
          },
          "indices": 35,
          "material": 0,
          "mode": 4
        }
      ]
    }
  ],
  "nodes": [
    {
      "children": [
        1
      ],
      "matrix": [
        1.0,
        0.0,
        0.0,
        0.0,
        0.0,
        2.220446049250313e-16,
        -1.0,
        0.0,
        0.0,
        1.0,
        2.220446049250313e-16,
        0.0,
        0.0,
        0.0,
        0.0,
        1.0
      ],
      "name": "Sketchfab_model"
    },
    {
      "children": [
        2,
        3,
        4,
        5,
        6,
        7,
        8,
        9,
        10
      ],
      "name": "Burger-1.obj.cleaner.materialmerger.gles"
    },
    {
      "mesh": 0,
      "name": "Object_2"
    },
    {
      "mesh": 1,
      "name": "Object_3"
    },
    {
      "mesh": 2,
      "name": "Object_4"
    },
    {
      "mesh": 3,
      "name": "Object_5"
    },
    {
      "mesh": 4,
      "name": "Object_6"
    },
    {
      "mesh": 5,
      "name": "Object_7"
    },
    {
      "mesh": 6,
      "name": "Object_8"
    },
    {
      "mesh": 7,
      "name": "Object_9"
    },
    {
      "mesh": 8,
      "name": "Object_10"
    }
  ],
  "samplers": [
    {
      "magFilter": 9729,
      "minFilter": 9987,
      "wrapS": 10497,
      "wrapT": 10497
    }
  ],
  "scene": 0,
  "scenes": [
    {
      "name": "Sketchfab_Scene",
      "nodes": [
        0
      ]
    }
  ],
  "textures": [
    {
      "sampler": 0,
      "source": 0
    }
  ]
}
