{
  "accessors": [
    {
      "bufferView": 2,
      "componentType": 5126,
      "count": 414,
      "max": [
        0.10869143903255463,
        0.15874150395393372,
        0.1093960851430893
      ],
      "min": [
        -0.11010074615478516,
        0.07111862301826477,
        -0.10939615964889526
      ],
      "type": "VEC3"
    },
    {
      "bufferView": 2,
      "byteOffset": 4968,
      "componentType": 5126,
      "count": 414,
      "max": [
        0.99656742811203,
        1.0,
        0.9973265528678894
      ],
      "min": [
        -0.9980009198188782,
        -1.0,
        -0.9973265528678894
      ],
      "type": "VEC3"
    },
    {
      "bufferView": 1,
      "componentType": 5126,
      "count": 414,
      "max": [
        1.0,
        1.0
      ],
      "min": [
        0.0,
        0.4999999403953552
      ],
      "type": "VEC2"
    },
    {
      "bufferView": 0,
      "componentType": 5125,
      "count": 2106,
      "type": "SCALAR"
    },
    {
      "bufferView": 2,
      "byteOffset": 9936,
      "componentType": 5126,
      "count": 417,
      "max": [
        0.10386930406093597,
        0.034887321293354034,
        0.10492026805877686
      ],
      "min": [
        -0.10597123950719833,
        0.0014762096107006073,
        -0.10492033511400223
      ],
      "type": "VEC3"
    },
    {
      "bufferView": 2,
      "byteOffset": 14940,
      "componentType": 5126,
      "count": 417,
      "max": [
        0.9935648441314697,
        0.9971775412559509,
        0.9914514422416687
      ],
      "min": [
        -0.9890936613082886,
        -1.0,
        -0.9914519786834717
      ],
      "type": "VEC3"
    },
    {
      "bufferView": 1,
      "byteOffset": 3312,
      "componentType": 5126,
      "count": 417,
      "max": [
        1.0,
        1.0
      ],
      "min": [
        0.0,
        0.4999999403953552
      ],
      "type": "VEC2"
    },
    {
      "bufferView": 0,
      "byteOffset": 8424,
      "componentType": 5125,
      "count": 2106,
      "type": "SCALAR"
    },
    {
      "bufferView": 2,
      "byteOffset": 19944,
      "componentType": 5126,
      "count": 581,
      "max": [
        0.10765405744314194,
        0.06875450909137726,
        0.10835874825716019
      ],
      "min": [
        -0.10906343907117844,
        0.03383488580584526,
        -0.10835874825716019
      ],
      "type": "VEC3"
    },
    {
      "bufferView": 2,
      "byteOffset": 26916,
      "componentType": 5126,
      "count": 581,
      "max": [
        1.0,
        1.0,
        1.0
      ],
      "min": [
        -1.0,
        -1.0,
        -1.0
      ],
      "type": "VEC3"
    },
    {
      "bufferView": 1,
      "byteOffset": 6648,
      "componentType": 5126,
      "count": 581,
      "max": [
        1.0000001192092896,
        0.9815008044242859
      ],
      "min": [
        0.0,
        0.01000000536441803
      ],
      "type": "VEC2"
    },
    {
      "bufferView": 0,
      "byteOffset": 16848,
      "componentType": 5125,
      "count": 2688,
      "type": "SCALAR"
    },
    {
      "bufferView": 2,
      "byteOffset": 33888,
      "componentType": 5126,
      "count": 10718,
      "max": [
        0.09110131859779358,
        0.07055442780256271,
        0.09116616100072861
      ],
      "min": [
        -0.09067746996879578,
        0.042132120579481125,
        -0.09068258851766586
      ],
      "type": "VEC3"
    },
    {
      "bufferView": 2,
      "byteOffset": 162504,
      "componentType": 5126,
      "count": 10718,
      "max": [
        0.9993668794631958,
        1.0,
        0.9945462346076965
      ],
      "min": [
        -0.9961125254631042,
        -1.0,
        -0.9648189544677734
      ],
      "type": "VEC3"
    },
    {
      "bufferView": 1,
      "byteOffset": 11296,
      "componentType": 5126,
      "count": 10718,
      "max": [
        1.0001343488693237,
        1.000542163848877
      ],
      "min": [
        -0.002597843063995242,
        -0.0015058178687468171
      ],
      "type": "VEC2"
    },
    {
      "bufferView": 0,
      "byteOffset": 27600,
      "componentType": 5125,
      "count": 64296,
      "type": "SCALAR"
    }
  ],
  "asset": {
    "extras": {
      "author": "Mauro Valvano (https://sketchfab.com/Mauro.Valvano)",
      "license": "CC-BY-4.0 (http://creativecommons.org/licenses/by/4.0/)",
      "source": "https://sketchfab.com/3d-models/toon-hamburger-4ed8f7598761457d86bd8afcf61627d6",
      "title": "Toon Hamburger"
    },
    "generator": "Sketchfab-14.25.0",
    "version": "2.0"
  },
  "bufferViews": [
    {
      "buffer": 0,
      "byteLength": 284784,
      "name": "floatBufferViews",
      "target": 34963
    },
    {
      "buffer": 0,
      "byteLength": 97040,
      "byteOffset": 284784,
      "byteStride": 8,
      "name": "floatBufferViews",
      "target": 34962
    },
    {
      "buffer": 0,
      "byteLength": 291120,
      "byteOffset": 381824,
      "byteStride": 12,
      "name": "floatBufferViews",
      "target": 34962
    }
  ],
  "buffers": [
    {
      "byteLength": 672944,
      "uri": "scene.bin"
    }
  ],
  "materials": [
    {
      "doubleSided": true,
      "name": "Bread",
      "pbrMetallicRoughness": {
        "baseColorFactor": [
          0.8,
          0.241218,
          0.0205111,
          1.0
        ],
        "metallicFactor": 0.0
      }
    },
    {
      "doubleSided": true,
      "name": "Meal",
      "pbrMetallicRoughness": {
        "baseColorFactor": [
          0.132864,
          0.0537819,
          0.0240363,
          1.0
        ],
        "metallicFactor": 0.0
      }
    },
    {
      "doubleSided": true,
      "name": "Cheese",
      "pbrMetallicRoughness": {
        "baseColorFactor": [
          0.854979,
          0.633416,
          0.00526353,
          1.0
        ],
        "metallicFactor": 0.0,
        "roughnessFactor": 0.5
      }
    }
  ],
  "meshes": [
    {
      "name": "Object_0",
      "primitives": [
        {
          "attributes": {
            "NORMAL": 1,
            "POSITION": 0,
            "TEXCOORD_0": 2
          },
          "indices": 3,
          "material": 0,
          "mode": 4
        }
      ]
    },
    {
      "name": "Object_1",
      "primitives": [
        {
          "attributes": {
            "NORMAL": 5,
            "POSITION": 4,
            "TEXCOORD_0": 6
          },
          "indices": 7,
          "material": 0,
          "mode": 4
        }
      ]
    },
    {
      "name": "Object_2",
      "primitives": [
        {
          "attributes": {
            "NORMAL": 9,
            "POSITION": 8,
            "TEXCOORD_0": 10
          },
          "indices": 11,
          "material": 1,
          "mode": 4
        }
      ]
    },
    {
      "name": "Object_3",
      "primitives": [
        {
          "attributes": {
            "NORMAL": 13,
            "POSITION": 12,
            "TEXCOORD_0": 14
          },
          "indices": 15,
          "material": 2,
          "mode": 4
        }
      ]
    }
  ],
  "nodes": [
    {
      "children": [
        1
      ],
      "matrix": [
        1.0,
        0.0,
        0.0,
        0.0,
        0.0,
        2.220446049250313e-16,
        -1.0,
        0.0,
        0.0,
        1.0,
        2.220446049250313e-16,
        0.0,
        0.0,
        0.0,
        0.0,
        1.0
      ],
      "name": "Sketchfab_model"
    },
    {
      "children": [
        2
      ],
      "name": "root"
    },
    {
      "children": [
        3,
        5,
        7,
        9
      ],
      "matrix": [
        1.0,
        0.0,
        0.0,
        0.0,
        0.0,
        2.220446049250313e-16,
        1.0,
        0.0,
        0.0,
        -1.0,
        2.220446049250313e-16,
        0.0,
        0.0,
        0.0,
        0.0,
        1.0
      ],
      "name": "GLTF_SceneRootNode"
    },
    {
      "children": [
        4
      ],
      "matrix": [
        1.0,
        0.0,
        0.0,
        0.0,
        0.0,
        1.0,
        0.0,
        0.0,
        0.0,
        0.0,
        1.0,
        0.0,
        0.0,
        -0.00331762433052063,
        0.0,
        1.0
      ],
      "name": "Top_2"
    },
    {
      "mesh": 0,
      "name": "Object_4"
    },
    {
      "children": [
        6
      ],
      "name": "Bottom_3"
    },
    {
      "mesh": 1,
      "name": "Object_6"
    },
    {
      "children": [
        8
      ],
      "name": "Meal_4"
    },
    {
      "mesh": 2,
      "name": "Object_8"
    },
    {
      "children": [
        10
      ],
      "name": "Plane_5"
    },
    {
      "mesh": 3,
      "name": "Object_10"
    }
  ],
  "scene": 0,
  "scenes": [
    {
      "name": "Sketchfab_Scene",
      "nodes": [
        0
      ]
    }
  ]
}
