{
  "accessors": [
    {
      "bufferView": 2,
      "componentType": 5126,
      "count": 1006,
      "max": [
        23.59345245361328,
        22.713605880737305,
        21.412565231323242
      ],
      "min": [
        -23.59345245361328,
        -22.713611602783203,
        -21.412578582763672
      ],
      "type": "VEC3"
    },
    {
      "bufferView": 2,
      "byteOffset": 12072,
      "componentType": 5126,
      "count": 1006,
      "max": [
        1.0,
        0.9984070062637329,
        1.0
      ],
      "min": [
        -1.0,
        -0.9984067678451538,
        -1.0
      ],
      "type": "VEC3"
    },
    {
      "bufferView": 3,
      "componentType": 5126,
      "count": 1006,
      "max": [
        1.0,
        0.9999195337295532,
        0.9387360215187073,
        1.0
      ],
      "min": [
        -0.9999999403953552,
        -1.0,
        -0.9999826550483704,
        -1.0
      ],
      "type": "VEC4"
    },
    {
      "bufferView": 1,
      "componentType": 5126,
      "count": 1006,
      "max": [
        0.9990234375,
        0.96923828125
      ],
      "min": [
        0.000499725341796875,
        0.0009765625
      ],
      "type": "VEC2"
    },
    {
      "bufferView": 1,
      "byteOffset": 8048,
      "componentType": 5126,
      "count": 1006,
      "max": [
        0.9990234375,
        0.96923828125
      ],
      "min": [
        0.000499725341796875,
        0.0009765625
      ],
      "type": "VEC2"
    },
    {
      "bufferView": 1,
      "byteOffset": 16096,
      "componentType": 5126,
      "count": 1006,
      "max": [
        0.9990234375,
        0.96923828125
      ],
      "min": [
        0.000499725341796875,
        0.0009765625
      ],
      "type": "VEC2"
    },
    {
      "bufferView": 1,
      "byteOffset": 24144,
      "componentType": 5126,
      "count": 1006,
      "max": [
        0.9990234375,
        0.96923828125
      ],
      "min": [
        0.000499725341796875,
        0.0009765625
      ],
      "type": "VEC2"
    },
    {
      "bufferView": 1,
      "byteOffset": 32192,
      "componentType": 5126,
      "count": 1006,
      "max": [
        0.9990234375,
        0.96923828125
      ],
      "min": [
        0.000499725341796875,
        0.0009765625
      ],
      "type": "VEC2"
    },
    {
      "bufferView": 0,
      "componentType": 5125,
      "count": 3294,
      "type": "SCALAR"
    }
  ],
  "asset": {
    "extras": {
      "author": "MaX3Dd (https://sketchfab.com/MaX3Dd)",
      "license": "CC-BY-4.0 (http://creativecommons.org/licenses/by/4.0/)",
      "source": "https://sketchfab.com/3d-models/plastic-bucket-006d0f237b4141ac93960fa51d6f0634",
      "title": "Plastic Bucket"
    },
    "generator": "Sketchfab-16.8.0",
    "version": "2.0"
  },
  "bufferViews": [
    {
      "buffer": 0,
      "byteLength": 13176,
      "name": "floatBufferViews",
      "target": 34963
    },
    {
      "buffer": 0,
      "byteLength": 40240,
      "byteOffset": 13176,
      "byteStride": 8,
      "name": "floatBufferViews",
      "target": 34962
    },
    {
      "buffer": 0,
      "byteLength": 24144,
      "byteOffset": 53416,
      "byteStride": 12,
      "name": "floatBufferViews",
      "target": 34962
    },
    {
      "buffer": 0,
      "byteLength": 16096,
      "byteOffset": 77560,
      "byteStride": 16,
      "name": "floatBufferViews",
      "target": 34962
    }
  ],
  "buffers": [
    {
      "byteLength": 93656,
      "uri": "scene.bin"
    }
  ],
  "images": [
    {
      "uri": "textures/Plastic_Bucket_baseColor.png"
    },
    {
      "uri": "textures/Plastic_Bucket_metallicRoughness.png"
    },
    {
      "uri": "textures/Plastic_Bucket_normal.png"
    }
  ],
  "materials": [
    {
      "doubleSided": true,
      "name": "Plastic_Bucket",
      "normalTexture": {
        "index": 2
      },
      "occlusionTexture": {
        "index": 1
      },
      "pbrMetallicRoughness": {
        "baseColorTexture": {
          "index": 0
        },
        "metallicRoughnessTexture": {
          "index": 1
        }
      }
    }
  ],
  "meshes": [
    {
      "name": "Plastic_Bucket_Plastic_Bucket_0",
      "primitives": [
        {
          "attributes": {
            "NORMAL": 1,
            "POSITION": 0,
            "TANGENT": 2,
            "TEXCOORD_0": 3,
            "TEXCOORD_1": 4,
            "TEXCOORD_2": 5,
            "TEXCOORD_3": 6,
            "TEXCOORD_4": 7
          },
          "indices": 8,
          "material": 0,
          "mode": 4
        }
      ]
    }
  ],
  "nodes": [
    {
      "children": [
        1
      ],
      "matrix": [
        1.0,
        0.0,
        0.0,
        0.0,
        0.0,
        2.220446049250313e-16,
        -1.0,
        0.0,
        0.0,
        1.0,
        2.220446049250313e-16,
        0.0,
        0.0,
        0.0,
        0.0,
        1.0
      ],
      "name": "Sketchfab_model"
    },
    {
      "children": [
        2
      ],
      "matrix": [
        0.009999999776482582,
        0.0,
        0.0,
        0.0,
        0.0,
        0.0,
        0.009999999776482582,
        0.0,
        0.0,
        -0.009999999776482582,
        0.0,
        0.0,
        0.0,
        0.0,
        0.0,
        1.0
      ],
      "name": "Plastic_Bucket.fbx"
    },
    {
      "children": [
        3
      ],
      "name": "RootNode"
    },
    {
      "children": [
        4
      ],
      "matrix": [
        1.0,
        0.0,
        0.0,
        0.0,
        0.0,
        2.220446049250313e-16,
        -1.0,
        0.0,
        0.0,
        1.0,
        2.220446049250313e-16,
        0.0,
        0.0,
        21.41273307800293,
        0.0,
        1.0
      ],
      "name": "Plastic_Bucket"
    },
    {
      "mesh": 0,
      "name": "Plastic_Bucket_Plastic_Bucket_0"
    }
  ],
  "samplers": [
    {
      "magFilter": 9729,
      "minFilter": 9987,
      "wrapS": 10497,
      "wrapT": 10497
    }
  ],
  "scene": 0,
  "scenes": [
    {
      "name": "Sketchfab_Scene",
      "nodes": [
        0
      ]
    }
  ],
  "textures": [
    {
      "sampler": 0,
      "source": 0
    },
    {
      "sampler": 0,
      "source": 1
    },
    {
      "sampler": 0,
      "source": 2
    }
  ]
}
